<svg width="56" height="56" viewBox="0 0 56 56" fill="none" xmlns="http://www.w3.org/2000/svg">
<g clip-path="url(#clip0_603_3498)">
<path fill-rule="evenodd" clip-rule="evenodd" d="M26.362 5.12162C27.4181 4.72574 28.5819 4.72574 29.638 5.12162L45.9713 11.2466C46.861 11.5801 47.6278 12.1773 48.169 12.9583C48.7102 13.7392 49.0001 14.6668 49 15.617V28.1306C49.0001 32.0306 47.9141 35.8536 45.8638 39.1712C43.8135 42.4887 40.8799 45.1698 37.3917 46.914L29.5657 50.827C29.0796 51.0701 28.5435 51.1967 28 51.1967C27.4565 51.1967 26.9204 51.0701 26.4343 50.827L18.6083 46.914C15.1201 45.1698 12.1865 42.4887 10.1362 39.1712C8.08587 35.8536 6.99992 32.0306 7 28.1306V15.617C6.99988 14.6668 7.28981 13.7392 7.83102 12.9583C8.37224 12.1773 9.13895 11.5801 10.0287 11.2466L26.362 5.12162ZM28 9.49195L11.6667 15.617V28.1306C11.6672 31.1636 12.5122 34.1366 14.1071 36.7164C15.702 39.2963 17.9837 41.3811 20.6967 42.7373L28 46.3936V9.49195Z" fill="#F65900"/>
</g>
<defs>
<clipPath id="clip0_603_3498">
<rect width="56" height="56" fill="white"/>
</clipPath>
</defs>
</svg>
