<svg width="56" height="56" viewBox="0 0 56 56" fill="none" xmlns="http://www.w3.org/2000/svg">
<g clip-path="url(#clip0_603_3502)">
<path fill-rule="evenodd" clip-rule="evenodd" d="M28.0001 51.3334C40.8871 51.3334 51.3334 40.8871 51.3334 28.0001C51.3334 15.1131 40.8871 4.66675 28.0001 4.66675C15.1131 4.66675 4.66675 15.1131 4.66675 28.0001C4.66675 40.8871 15.1131 51.3334 28.0001 51.3334ZM21.0071 20.9931C21.0071 21.6119 21.2529 22.2054 21.6905 22.643C22.1281 23.0806 22.7216 23.3264 23.3404 23.3264H29.3744L19.3504 33.3504C19.1276 33.5657 18.9498 33.8231 18.8275 34.1078C18.7052 34.3925 18.6409 34.6987 18.6382 35.0085C18.6355 35.3183 18.6945 35.6256 18.8118 35.9123C18.9292 36.1991 19.1024 36.4596 19.3215 36.6787C19.5406 36.8978 19.8011 37.071 20.0879 37.1883C20.3746 37.3057 20.6819 37.3647 20.9917 37.362C21.3015 37.3593 21.6077 37.2949 21.8924 37.1727C22.177 37.0504 22.4345 36.8726 22.6497 36.6497L32.6737 26.6257V32.6597C32.6737 33.2786 32.9196 33.8721 33.3572 34.3097C33.7948 34.7472 34.3882 34.9931 35.0071 34.9931C35.6259 34.9931 36.2194 34.7472 36.657 34.3097C37.0946 33.8721 37.3404 33.2786 37.3404 32.6597V20.9931C37.3404 20.3742 37.0946 19.7808 36.657 19.3432C36.2194 18.9056 35.6259 18.6597 35.0071 18.6597H23.3404C22.7216 18.6597 22.1281 18.9056 21.6905 19.3432C21.2529 19.7808 21.0071 20.3742 21.0071 20.9931Z" fill="#F65900"/>
</g>
<defs>
<clipPath id="clip0_603_3502">
<rect width="56" height="56" fill="white"/>
</clipPath>
</defs>
</svg>
