<svg width="56" height="56" viewBox="0 0 56 56" fill="none" xmlns="http://www.w3.org/2000/svg">
<path d="M25.48 6.69205C25.7367 6.25142 26.1046 5.88582 26.5467 5.63172C26.9889 5.37762 27.49 5.2439 28 5.2439C28.5099 5.2439 29.011 5.37762 29.4532 5.63172C29.8954 5.88582 30.2632 6.25142 30.52 6.69205L37.0416 17.8874L49.707 20.6314C50.2052 20.7396 50.6663 20.9766 51.0443 21.3186C51.4224 21.6606 51.7042 22.0958 51.8617 22.5807C52.0191 23.0656 52.0468 23.5833 51.9418 24.0822C51.8368 24.5811 51.6028 25.0437 51.2633 25.424L42.63 35.0864L43.9366 47.978C43.9882 48.4857 43.9057 48.9979 43.6973 49.4637C43.4889 49.9295 43.1621 50.3324 42.7493 50.6323C42.3365 50.9323 41.8522 51.1186 41.3449 51.1729C40.8375 51.2271 40.3248 51.1473 39.858 50.9414L28 45.7147L16.142 50.9414C15.6751 51.1473 15.1624 51.2271 14.6551 51.1729C14.1477 51.1186 13.6635 50.9323 13.2507 50.6323C12.8379 50.3324 12.511 49.9295 12.3026 49.4637C12.0943 48.9979 12.0118 48.4857 12.0633 47.978L13.37 35.0864L4.73663 25.4264C4.3965 25.0461 4.16206 24.5833 4.05673 24.0841C3.9514 23.5849 3.97886 23.0667 4.13637 22.5815C4.29387 22.0962 4.57592 21.6607 4.95435 21.3185C5.33277 20.9764 5.79434 20.7394 6.29297 20.6314L18.9583 17.8874L25.48 6.69205Z" fill="#F65900"/>
</svg>
