<svg width="1440" height="73" viewBox="0 0 1440 73" fill="none" xmlns="http://www.w3.org/2000/svg">
<path d="M126.19 61.88H82.26L85.31 48.82L87.58 39.05L90.6 26.12L92.87 16.35L95.49 5.12L96.68 0H111.76L114.6 12.18L118.26 27.9L122.47 45.94L126.13 61.66L126.19 61.88Z" fill="#EAAB29"/>
<path d="M130.45 61.88H104.22H78L71.8199 72.7H104.22H136.63L130.45 61.88Z" fill="#EAAB29"/>
<path d="M118.26 27.9L95.49 5.12L96.68 0H102.42L114.6 12.18L118.26 27.9Z" fill="#FEFAF5"/>
<path d="M126.13 61.66L90.6 26.12L92.87 16.35L122.47 45.94L126.13 61.66Z" fill="#FEFAF5"/>
<path d="M110.41 61.8801H98.3599L85.3099 48.82L87.5799 39.05L110.41 61.8801Z" fill="#FEFAF5"/>
<g style="mix-blend-mode:multiply" opacity="0.7">
<path d="M126.19 61.8801L83.56 56.3L82.26 61.8801H126.19Z" fill="#EAAB29"/>
</g>
<path d="M263 61.88H219.08L222.12 48.82L224.4 39.05L227.41 26.12L229.69 16.35L232.31 5.12L233.5 0H248.58L251.42 12.18L255.08 27.9L259.28 45.94L262.95 61.66L263 61.88Z" fill="#EAAB29"/>
<path d="M267.26 61.88H241.04H214.82L208.63 72.7H241.04H273.45L267.26 61.88Z" fill="#EAAB29"/>
<path d="M255.08 27.9L232.31 5.12L233.5 0H239.23L251.42 12.18L255.08 27.9Z" fill="#FEFAF5"/>
<path d="M262.95 61.66L227.41 26.12L229.69 16.35L259.28 45.94L262.95 61.66Z" fill="#FEFAF5"/>
<path d="M247.23 61.8801H235.18L222.12 48.82L224.4 39.05L247.23 61.8801Z" fill="#FEFAF5"/>
<g style="mix-blend-mode:multiply" opacity="0.7">
<path d="M263 61.8801L220.38 56.3L219.08 61.8801H263Z" fill="#EAAB29"/>
</g>
<path d="M399.82 61.88H355.9L358.94 48.82L361.22 39.05L364.23 26.12L366.51 16.35L369.13 5.12L370.32 0H385.4L388.24 12.18L391.9 27.9L396.11 45.94L399.77 61.66L399.82 61.88Z" fill="#EAAB29"/>
<path d="M404.08 61.88H377.86H351.64L345.45 72.7H377.86H410.27L404.08 61.88Z" fill="#EAAB29"/>
<path d="M391.9 27.9L369.13 5.12L370.32 0H376.06L388.24 12.18L391.9 27.9Z" fill="#FEFAF5"/>
<path d="M399.77 61.66L364.23 26.12L366.51 16.35L396.11 45.94L399.77 61.66Z" fill="#FEFAF5"/>
<path d="M384.05 61.8801H372L358.94 48.82L361.22 39.05L384.05 61.8801Z" fill="#FEFAF5"/>
<g style="mix-blend-mode:multiply" opacity="0.7">
<path d="M399.82 61.8801L357.2 56.3L355.9 61.8801H399.82Z" fill="#EAAB29"/>
</g>
<path d="M536.64 61.88H492.71L495.76 48.82L498.03 39.05L501.05 26.12L503.32 16.35L505.94 5.12L507.13 0H522.21L525.05 12.18L528.71 27.9L532.92 45.94L536.58 61.66L536.64 61.88Z" fill="#EAAB29"/>
<path d="M540.9 61.88H514.67H488.45L482.27 72.7H514.67H547.08L540.9 61.88Z" fill="#EAAB29"/>
<path d="M528.71 27.9L505.94 5.12L507.13 0H512.87L525.05 12.18L528.71 27.9Z" fill="#FEFAF5"/>
<path d="M536.58 61.66L501.05 26.12L503.32 16.35L532.92 45.94L536.58 61.66Z" fill="#FEFAF5"/>
<path d="M520.86 61.8801H508.81L495.76 48.82L498.03 39.05L520.86 61.8801Z" fill="#FEFAF5"/>
<g style="mix-blend-mode:multiply" opacity="0.7">
<path d="M536.64 61.8801L494.01 56.3L492.71 61.8801H536.64Z" fill="#EAAB29"/>
</g>
<path d="M673.45 61.88H629.53L632.57 48.82L634.85 39.05L637.86 26.12L640.14 16.35L642.76 5.12L643.95 0H659.03L661.87 12.18L665.53 27.9L669.73 45.94L673.4 61.66L673.45 61.88Z" fill="#EAAB29"/>
<path d="M677.71 61.88H651.49H625.27L619.08 72.7H651.49H683.9L677.71 61.88Z" fill="#EAAB29"/>
<path d="M665.53 27.9L642.76 5.12L643.95 0H649.68L661.87 12.18L665.53 27.9Z" fill="#FEFAF5"/>
<path d="M673.4 61.66L637.86 26.12L640.14 16.35L669.73 45.94L673.4 61.66Z" fill="#FEFAF5"/>
<path d="M657.68 61.8801H645.63L632.57 48.82L634.85 39.05L657.68 61.8801Z" fill="#FEFAF5"/>
<g style="mix-blend-mode:multiply" opacity="0.7">
<path d="M673.45 61.8801L630.83 56.3L629.53 61.8801H673.45Z" fill="#EAAB29"/>
</g>
<path d="M810.27 61.88H766.35L769.39 48.82L771.67 39.05L774.68 26.12L776.96 16.35L779.58 5.12L780.77 0H795.85L798.69 12.18L802.35 27.9L806.56 45.94L810.22 61.66L810.27 61.88Z" fill="#EAAB29"/>
<path d="M814.53 61.88H788.31H762.09L755.9 72.7H788.31H820.72L814.53 61.88Z" fill="#EAAB29"/>
<path d="M802.35 27.9L779.58 5.12L780.77 0H786.51L798.69 12.18L802.35 27.9Z" fill="#FEFAF5"/>
<path d="M810.22 61.66L774.68 26.12L776.96 16.35L806.56 45.94L810.22 61.66Z" fill="#FEFAF5"/>
<path d="M794.5 61.8801H782.45L769.39 48.82L771.67 39.05L794.5 61.8801Z" fill="#FEFAF5"/>
<g style="mix-blend-mode:multiply" opacity="0.7">
<path d="M810.27 61.8801L767.65 56.3L766.35 61.8801H810.27Z" fill="#EAAB29"/>
</g>
<path d="M947.09 61.88H903.16L906.21 48.82L908.48 39.05L911.5 26.12L913.77 16.35L916.39 5.12L917.58 0H932.66L935.5 12.18L939.16 27.9L943.37 45.94L947.03 61.66L947.09 61.88Z" fill="#EAAB29"/>
<path d="M951.35 61.88H925.12H898.9L892.72 72.7H925.12H957.53L951.35 61.88Z" fill="#EAAB29"/>
<path d="M939.16 27.9L916.39 5.12L917.58 0H923.32L935.5 12.18L939.16 27.9Z" fill="#FEFAF5"/>
<path d="M947.03 61.66L911.5 26.12L913.77 16.35L943.37 45.94L947.03 61.66Z" fill="#FEFAF5"/>
<path d="M931.31 61.8801H919.26L906.21 48.82L908.48 39.05L931.31 61.8801Z" fill="#FEFAF5"/>
<g style="mix-blend-mode:multiply" opacity="0.7">
<path d="M947.09 61.8801L904.46 56.3L903.16 61.8801H947.09Z" fill="#EAAB29"/>
</g>
<path d="M1083.9 61.88H1039.98L1043.02 48.82L1045.3 39.05L1048.31 26.12L1050.59 16.35L1053.21 5.12L1054.4 0H1069.48L1072.32 12.18L1075.98 27.9L1080.18 45.94L1083.85 61.66L1083.9 61.88Z" fill="#EAAB29"/>
<path d="M1088.16 61.88H1061.94H1035.72L1029.53 72.7H1061.94H1094.35L1088.16 61.88Z" fill="#EAAB29"/>
<path d="M1075.98 27.9L1053.21 5.12L1054.4 0H1060.13L1072.32 12.18L1075.98 27.9Z" fill="#FEFAF5"/>
<path d="M1083.85 61.66L1048.31 26.12L1050.59 16.35L1080.18 45.94L1083.85 61.66Z" fill="#FEFAF5"/>
<path d="M1068.13 61.8801H1056.08L1043.02 48.82L1045.3 39.05L1068.13 61.8801Z" fill="#FEFAF5"/>
<g style="mix-blend-mode:multiply" opacity="0.7">
<path d="M1083.9 61.8801L1041.28 56.3L1039.98 61.8801H1083.9Z" fill="#EAAB29"/>
</g>
<path d="M1220.72 61.88H1176.8L1179.84 48.82L1182.12 39.05L1185.13 26.12L1187.41 16.35L1190.03 5.12L1191.22 0H1206.3L1209.14 12.18L1212.8 27.9L1217.01 45.94L1220.67 61.66L1220.72 61.88Z" fill="#EAAB29"/>
<path d="M1224.98 61.88H1198.76H1172.54L1166.35 72.7H1198.76H1231.17L1224.98 61.88Z" fill="#EAAB29"/>
<path d="M1212.8 27.9L1190.03 5.12L1191.22 0H1196.96L1209.14 12.18L1212.8 27.9Z" fill="#FEFAF5"/>
<path d="M1220.67 61.66L1185.13 26.12L1187.41 16.35L1217.01 45.94L1220.67 61.66Z" fill="#FEFAF5"/>
<path d="M1204.95 61.8801H1192.9L1179.84 48.82L1182.12 39.05L1204.95 61.8801Z" fill="#FEFAF5"/>
<g style="mix-blend-mode:multiply" opacity="0.7">
<path d="M1220.72 61.8801L1178.1 56.3L1176.8 61.8801H1220.72Z" fill="#EAAB29"/>
</g>
<path d="M1357.54 61.88H1313.61L1316.66 48.82L1318.93 39.05L1321.95 26.12L1324.22 16.35L1326.84 5.12L1328.03 0H1343.11L1345.95 12.18L1349.61 27.9L1353.82 45.94L1357.48 61.66L1357.54 61.88Z" fill="#EAAB29"/>
<path d="M1361.8 61.88H1335.57H1309.35L1303.17 72.7H1335.57H1367.98L1361.8 61.88Z" fill="#EAAB29"/>
<path d="M1349.61 27.9L1326.84 5.12L1328.03 0H1333.77L1345.95 12.18L1349.61 27.9Z" fill="#FEFAF5"/>
<path d="M1357.48 61.66L1321.95 26.12L1324.22 16.35L1353.82 45.94L1357.48 61.66Z" fill="#FEFAF5"/>
<path d="M1341.76 61.8801H1329.71L1316.66 48.82L1318.93 39.05L1341.76 61.8801Z" fill="#FEFAF5"/>
<g style="mix-blend-mode:multiply" opacity="0.7">
<path d="M1357.54 61.8801L1314.91 56.3L1313.61 61.8801H1357.54Z" fill="#EAAB29"/>
</g>
<path d="M1498.61 61.88H1472.39H1446.17L1439.98 72.7H1472.39H1504.8L1498.61 61.88Z" fill="#EAAB29"/>
</svg>
